# xmcd CD database file
# Copyright (C) 1997 Ti Kan
# 
# Track frame offsets:
#     150
#     11385
#     26118
#     41323
#     45420
#     79098
#     98723
#     119160
#     140040
# 
# Disc length: 2049 seconds
# 
# Revision: 1
# Processed by: cddbd v1.4b41PL1 Copyright (c) Steve Scherf et al.
# Submitted via: DiscPlay 4.0.4
# 
DISCID=6e07ff09
DTITLE=Andr  Christovam - Mandinga
DYEAR=1900
DGENRE=
TTITLE0=Sebo nas Canelas
TTITLE1=Confort vel
TTITLE2=Duvido (Mas, t  Tentando)
TTITLE3=Bling Dog
TTITLE4=Mandinga
TTITLE5=So Long Boemia
TTITLE6=Genu no Peda o de Cristo
TTITLE7=Dados Chumbados
TTITLE8=Palha o de Gesso
EXTD=
EXTT0=
EXTT1=
EXTT2=
EXTT3=
EXTT4=
EXTT5=
EXTT6=
EXTT7=
EXTT8=
PLAYORDER=
